<?xml version="1.0" standalone="no"?>
<!DOCTYPE svg PUBLIC "-//W3C//DTD SVG 20010904//EN"
 "http://www.w3.org/TR/2001/REC-SVG-20010904/DTD/svg10.dtd">
<svg version="1.0" xmlns="http://www.w3.org/2000/svg"
 width="1280.000000pt" height="960.000000pt" viewBox="0 0 1280.000000 960.000000"
 preserveAspectRatio="xMidYMid meet">
<metadata>
Created by potrace 1.15, written by Peter Selinger 2001-2017
</metadata>
<g transform="translate(0.000000,960.000000) scale(0.100000,-0.100000)"
fill="#000000" stroke="none">
<path d="M2519 8828 c-3 -14 -11 -97 -23 -273 -9 -115 -22 -298 -31 -405 -17
-235 -41 -547 -60 -805 -8 -104 -21 -282 -30 -395 -8 -113 -22 -294 -30 -402
-8 -109 -22 -288 -30 -398 -21 -282 -42 -561 -60 -800 -8 -113 -17 -232 -20
-265 -2 -33 -9 -125 -15 -205 -6 -80 -12 -167 -15 -195 -2 -27 -9 -117 -15
-200 -6 -82 -13 -175 -15 -205 -3 -30 -12 -149 -20 -265 -9 -115 -22 -295 -30
-400 -8 -104 -21 -284 -30 -400 -54 -718 -114 -1524 -150 -1995 -8 -107 -22
-292 -30 -410 -9 -118 -16 -226 -18 -240 -2 -22 3 -25 43 -32 25 -3 449 -7
943 -7 l897 -1 10 23 c5 12 20 258 35 547 28 567 68 1340 115 2245 73 1401
140 2860 140 3059 0 49 2 87 5 84 3 -2 32 -139 64 -304 200 -1002 368 -1722
608 -2594 52 -190 150 -547 218 -795 162 -590 394 -1437 493 -1798 44 -159 85
-294 91 -300 18 -18 1570 -23 1593 -5 10 8 118 353 297 948 154 514 393 1310
530 1768 384 1276 518 1752 732 2597 l119 470 0 -336 c0 -358 23 -1330 39
-1669 6 -113 13 -275 16 -360 3 -85 10 -227 15 -315 10 -156 15 -271 45 -970
8 -187 22 -497 30 -690 28 -639 44 -1007 56 -1295 6 -157 16 -289 21 -295 6
-7 349 -10 991 -10 l982 0 3 50 c2 28 -42 775 -98 1660 -133 2144 -234 3765
-329 5279 -76 1231 -78 1250 -99 1264 -12 8 -22 21 -22 28 0 12 -194 14 -1244
14 l-1244 0 -11 -32 c-5 -18 -54 -184 -107 -368 -53 -184 -118 -409 -144 -500
-580 -1996 -546 -1880 -654 -2285 -200 -753 -389 -1551 -521 -2200 -46 -222
-64 -289 -65 -236 0 38 -114 597 -196 961 -80 360 -255 1074 -385 1575 -104
401 -806 2993 -819 3023 -5 12 -16 22 -24 22 -8 0 -18 9 -21 20 -6 20 -15 20
-1266 20 -692 0 -1259 -1 -1260 -2z"/>
</g>
</svg>
